# xmcd
#
# Track frame offsets:
#	150
#	22137
#	36225
#	51462
#	65300
#	80987
#	96225
#	107600
#	119487
#	134675
#	150812
#	165075
#	177925
#	190087
#
# Disc length: 2789 seconds
#
# Revision: 2
# Processed by: cddbd v1.5.1PL0 Copyright (c) Steve Scherf et al.
# Submitted via: audiograbber 1.83.01
#
DISCID=bb0ae30e
DTITLE=Stahlavsky Jindra - Divka z Rocky Mountain
DYEAR=1900
DGENRE=
TTITLE0=Divka z Rocky Mountain
TTITLE1=Denni Bar
TTITLE2=Jaro
TTITLE3=Lod Bora
TTITLE4=Svatebni Zvony
TTITLE5=Lasky
TTITLE6=Balada o Koni
TTITLE7=Zvonky Sani
TTITLE8=Cas Prvnich Basni
TTITLE9=Posledni Verejne Obeseni
TTITLE10=Pojedou
TTITLE11=Karolina
TTITLE12=Laura
TTITLE13=Ohio
EXTD=
EXTT0=
EXTT1=
EXTT2=
EXTT3=
EXTT4=
EXTT5=
EXTT6=
EXTT7=
EXTT8=
EXTT9=
EXTT10=
EXTT11=
EXTT12=
EXTT13=
PLAYORDER=
